{
	"asset":{
		"generator":"Khronos glTF Blender I/O v3.5.30",
		"version":"2.0"
	},
	"scene":0,
	"scenes":[
		{
			"name":"Scene",
			"nodes":[
				0
			]
		}
	],
	"nodes":[
		{
			"mesh":0,
			"name":"Cube"
		}
	],
	"materials":[
		{
			"doubleSided":true,
			"name":"Material.001",
			"pbrMetallicRoughness":{
				"baseColorFactor":[
					0.09083463996648788,
					0.04229923337697983,
					0.028428250923752785,
					1
				],
				"metallicFactor":0,
				"roughnessFactor":0.5
			}
		},
		{
			"doubleSided":true,
			"name":"Material.002",
			"pbrMetallicRoughness":{
				"baseColorFactor":[
					0.011368720792233944,
					0.375747412443161,
					0.0076337638311088085,
					1
				],
				"metallicFactor":0,
				"roughnessFactor":0.5
			}
		}
	],
	"meshes":[
		{
			"name":"Cube.001",
			"primitives":[
				{
					"attributes":{
						"POSITION":0,
						"TEXCOORD_0":1,
						"NORMAL":2
					},
					"indices":3,
					"material":0
				},
				{
					"attributes":{
						"POSITION":4,
						"TEXCOORD_0":5,
						"NORMAL":6
					},
					"indices":7,
					"material":1
				}
			]
		}
	],
	"accessors":[
		{
			"bufferView":0,
			"componentType":5126,
			"count":105,
			"max":[
				1,
				0.861950695514679,
				0
			],
			"min":[
				0,
				0,
				-1
			],
			"type":"VEC3"
		},
		{
			"bufferView":1,
			"componentType":5126,
			"count":105,
			"type":"VEC2"
		},
		{
			"bufferView":2,
			"componentType":5126,
			"count":105,
			"type":"VEC3"
		},
		{
			"bufferView":3,
			"componentType":5123,
			"count":360,
			"type":"SCALAR"
		},
		{
			"bufferView":4,
			"componentType":5126,
			"count":105,
			"max":[
				1,
				1,
				0
			],
			"min":[
				0,
				0.6260616183280945,
				-1
			],
			"type":"VEC3"
		},
		{
			"bufferView":5,
			"componentType":5126,
			"count":105,
			"type":"VEC2"
		},
		{
			"bufferView":6,
			"componentType":5126,
			"count":105,
			"type":"VEC3"
		},
		{
			"bufferView":7,
			"componentType":5123,
			"count":360,
			"type":"SCALAR"
		}
	],
	"bufferViews":[
		{
			"buffer":0,
			"byteLength":1260,
			"byteOffset":0,
			"target":34962
		},
		{
			"buffer":0,
			"byteLength":840,
			"byteOffset":1260,
			"target":34962
		},
		{
			"buffer":0,
			"byteLength":1260,
			"byteOffset":2100,
			"target":34962
		},
		{
			"buffer":0,
			"byteLength":720,
			"byteOffset":3360,
			"target":34963
		},
		{
			"buffer":0,
			"byteLength":1260,
			"byteOffset":4080,
			"target":34962
		},
		{
			"buffer":0,
			"byteLength":840,
			"byteOffset":5340,
			"target":34962
		},
		{
			"buffer":0,
			"byteLength":1260,
			"byteOffset":6180,
			"target":34962
		},
		{
			"buffer":0,
			"byteLength":720,
			"byteOffset":7440,
			"target":34963
		}
	],
	"buffers":[
		{
			"byteLength":8160,
			"uri":"block.bin"
		}
	]
}
