{
	"asset":{
		"generator":"Khronos glTF Blender I/O v3.5.30",
		"version":"2.0"
	},
	"scene":0,
	"scenes":[
		{
			"name":"Scene",
			"nodes":[
				0
			]
		}
	],
	"nodes":[
		{
			"mesh":0,
			"name":"y"
		}
	],
	"materials":[
		{
			"doubleSided":true,
			"name":"Material.005",
			"pbrMetallicRoughness":{
				"baseColorFactor":[
					0,
					1,
					0,
					1
				],
				"metallicFactor":0,
				"roughnessFactor":0.5
			}
		},
		{
			"doubleSided":true,
			"name":"Material.003",
			"pbrMetallicRoughness":{
				"baseColorFactor":[
					0,
					0,
					1,
					1
				],
				"metallicFactor":0,
				"roughnessFactor":0.5
			}
		},
		{
			"doubleSided":true,
			"name":"Material.006",
			"pbrMetallicRoughness":{
				"baseColorFactor":[
					1,
					0,
					0,
					1
				],
				"metallicFactor":0,
				"roughnessFactor":0.5
			}
		}
	],
	"meshes":[
		{
			"name":"Cylinder.001",
			"primitives":[
				{
					"attributes":{
						"POSITION":0,
						"TEXCOORD_0":1,
						"NORMAL":2
					},
					"indices":3,
					"material":0
				},
				{
					"attributes":{
						"POSITION":4,
						"TEXCOORD_0":5,
						"NORMAL":6
					},
					"indices":3,
					"material":1
				},
				{
					"attributes":{
						"POSITION":7,
						"TEXCOORD_0":8,
						"NORMAL":9
					},
					"indices":3,
					"material":2
				}
			]
		}
	],
	"accessors":[
		{
			"bufferView":0,
			"componentType":5126,
			"count":82,
			"max":[
				0.10000002384185791,
				0.09999989718198776,
				8.146035845868482e-09
			],
			"min":[
				-0.10000002384185791,
				-0.10000015050172806,
				-0.9999999403953552
			],
			"type":"VEC3"
		},
		{
			"bufferView":1,
			"componentType":5126,
			"count":82,
			"type":"VEC2"
		},
		{
			"bufferView":2,
			"componentType":5126,
			"count":82,
			"type":"VEC3"
		},
		{
			"bufferView":3,
			"componentType":5123,
			"count":138,
			"type":"SCALAR"
		},
		{
			"bufferView":4,
			"componentType":5126,
			"count":82,
			"max":[
				0.10000002384185791,
				0.9999998211860657,
				0.09999998658895493
			],
			"min":[
				-0.10000002384185791,
				-1.4280918669840048e-09,
				-0.10000003129243851
			],
			"type":"VEC3"
		},
		{
			"bufferView":5,
			"componentType":5126,
			"count":82,
			"type":"VEC2"
		},
		{
			"bufferView":6,
			"componentType":5126,
			"count":82,
			"type":"VEC3"
		},
		{
			"bufferView":7,
			"componentType":5126,
			"count":82,
			"max":[
				0.9999999403953552,
				0.10000000894069672,
				0.10000000894069672
			],
			"min":[
				-1.1102232893229526e-17,
				-0.10000000894069672,
				-0.10000000894069672
			],
			"type":"VEC3"
		},
		{
			"bufferView":8,
			"componentType":5126,
			"count":82,
			"type":"VEC2"
		},
		{
			"bufferView":9,
			"componentType":5126,
			"count":82,
			"type":"VEC3"
		}
	],
	"bufferViews":[
		{
			"buffer":0,
			"byteLength":984,
			"byteOffset":0,
			"target":34962
		},
		{
			"buffer":0,
			"byteLength":656,
			"byteOffset":984,
			"target":34962
		},
		{
			"buffer":0,
			"byteLength":984,
			"byteOffset":1640,
			"target":34962
		},
		{
			"buffer":0,
			"byteLength":276,
			"byteOffset":2624,
			"target":34963
		},
		{
			"buffer":0,
			"byteLength":984,
			"byteOffset":2900,
			"target":34962
		},
		{
			"buffer":0,
			"byteLength":656,
			"byteOffset":3884,
			"target":34962
		},
		{
			"buffer":0,
			"byteLength":984,
			"byteOffset":4540,
			"target":34962
		},
		{
			"buffer":0,
			"byteLength":984,
			"byteOffset":5524,
			"target":34962
		},
		{
			"buffer":0,
			"byteLength":656,
			"byteOffset":6508,
			"target":34962
		},
		{
			"buffer":0,
			"byteLength":984,
			"byteOffset":7164,
			"target":34962
		}
	],
	"buffers":[
		{
			"byteLength":8148,
			"uri":"debug.bin"
		}
	]
}
