{
	"asset":{
		"generator":"Khronos glTF Blender I/O v3.5.30",
		"version":"2.0"
	},
	"scene":0,
	"scenes":[
		{
			"name":"Scene",
			"nodes":[
				3
			]
		}
	],
	"nodes":[
		{
			"name":"Bone.001",
			"rotation":[
				-0.5028811097145081,
				-8.673517903901029e-09,
				0.09604146331548691,
				0.8590033054351807
			],
			"scale":[
				1,
				0.9999998211860657,
				0.9999999403953552
			],
			"translation":[
				1.862645149230957e-09,
				1.1486269235610962,
				7.916241884231567e-09
			]
		},
		{
			"children":[
				0
			],
			"name":"Bone",
			"rotation":[
				0.26795682311058044,
				1.8392750433804395e-08,
				-0.051175039261579514,
				0.9620708227157593
			],
			"scale":[
				0.9999999403953552,
				0.9999999403953552,
				0.9999998211860657
			]
		},
		{
			"mesh":0,
			"name":"Suzanne",
			"skin":0
		},
		{
			"children":[
				2,
				1
			],
			"name":"Armature",
			"translation":[
				0,
				-1.1137690544128418,
				0
			]
		}
	],
	"animations":[
		{
			"channels":[
				{
					"sampler":0,
					"target":{
						"node":1,
						"path":"translation"
					}
				},
				{
					"sampler":1,
					"target":{
						"node":1,
						"path":"rotation"
					}
				},
				{
					"sampler":2,
					"target":{
						"node":1,
						"path":"scale"
					}
				},
				{
					"sampler":3,
					"target":{
						"node":0,
						"path":"translation"
					}
				},
				{
					"sampler":4,
					"target":{
						"node":0,
						"path":"rotation"
					}
				},
				{
					"sampler":5,
					"target":{
						"node":0,
						"path":"scale"
					}
				}
			],
			"name":"ArmatureAction",
			"samplers":[
				{
					"input":15,
					"interpolation":"LINEAR",
					"output":16
				},
				{
					"input":15,
					"interpolation":"LINEAR",
					"output":17
				},
				{
					"input":15,
					"interpolation":"LINEAR",
					"output":18
				},
				{
					"input":15,
					"interpolation":"LINEAR",
					"output":19
				},
				{
					"input":15,
					"interpolation":"LINEAR",
					"output":20
				},
				{
					"input":15,
					"interpolation":"LINEAR",
					"output":21
				}
			]
		}
	],
	"materials":[
		{
			"doubleSided":true,
			"name":"Red",
			"normalTexture":{
				"index":0
			},
			"pbrMetallicRoughness":{
				"baseColorFactor":[
					0.8000000715255737,
					0.021181795746088028,
					0.02715395949780941,
					1
				],
				"metallicFactor":0,
				"roughnessFactor":0.5
			}
		},
		{
			"doubleSided":true,
			"name":"White",
			"pbrMetallicRoughness":{
				"baseColorFactor":[
					0.800000011920929,
					0.800000011920929,
					0.800000011920929,
					1
				],
				"metallicFactor":0,
				"roughnessFactor":0.5
			}
		}
	],
	"meshes":[
		{
			"name":"Suzanne",
			"primitives":[
				{
					"attributes":{
						"POSITION":0,
						"TEXCOORD_0":1,
						"NORMAL":2,
						"TANGENT":3,
						"JOINTS_0":4,
						"WEIGHTS_0":5
					},
					"indices":6,
					"material":0
				},
				{
					"attributes":{
						"POSITION":7,
						"TEXCOORD_0":8,
						"NORMAL":9,
						"TANGENT":10,
						"JOINTS_0":11,
						"WEIGHTS_0":12
					},
					"indices":13,
					"material":1
				}
			]
		}
	],
	"textures":[
		{
			"sampler":0,
			"source":0
		}
	],
	"images":[
		{
			"mimeType":"image/jpeg",
			"name":"265661159_4966549726690120_4732735168318385914_n",
			"uri":"265661159_4966549726690120_4732735168318385914_n.jpg"
		}
	],
	"skins":[
		{
			"inverseBindMatrices":14,
			"joints":[
				1,
				0
			],
			"name":"Armature"
		}
	],
	"accessors":[
		{
			"bufferView":0,
			"componentType":5126,
			"count":1808,
			"max":[
				1.3671875,
				0.984375,
				0.8515627980232239
			],
			"min":[
				-1.3671875,
				-0.9843749403953552,
				-0.851561963558197
			],
			"type":"VEC3"
		},
		{
			"bufferView":1,
			"componentType":5126,
			"count":1808,
			"type":"VEC2"
		},
		{
			"bufferView":2,
			"componentType":5126,
			"count":1808,
			"type":"VEC3"
		},
		{
			"bufferView":3,
			"componentType":5126,
			"count":1808,
			"type":"VEC4"
		},
		{
			"bufferView":4,
			"componentType":5121,
			"count":1808,
			"type":"VEC4"
		},
		{
			"bufferView":5,
			"componentType":5126,
			"count":1808,
			"type":"VEC4"
		},
		{
			"bufferView":6,
			"componentType":5123,
			"count":2646,
			"type":"SCALAR"
		},
		{
			"bufferView":7,
			"componentType":5126,
			"count":190,
			"max":[
				0.5625000596046448,
				0.45312488079071045,
				0.8281251788139343
			],
			"min":[
				-0.5624999403953552,
				-0.8593749403953552,
				0.6328123807907104
			],
			"type":"VEC3"
		},
		{
			"bufferView":8,
			"componentType":5126,
			"count":190,
			"type":"VEC2"
		},
		{
			"bufferView":9,
			"componentType":5126,
			"count":190,
			"type":"VEC3"
		},
		{
			"bufferView":10,
			"componentType":5126,
			"count":190,
			"type":"VEC4"
		},
		{
			"bufferView":11,
			"componentType":5121,
			"count":190,
			"type":"VEC4"
		},
		{
			"bufferView":12,
			"componentType":5126,
			"count":190,
			"type":"VEC4"
		},
		{
			"bufferView":13,
			"componentType":5123,
			"count":258,
			"type":"SCALAR"
		},
		{
			"bufferView":14,
			"componentType":5126,
			"count":2,
			"type":"MAT4"
		},
		{
			"bufferView":15,
			"componentType":5126,
			"count":30,
			"max":[
				1.25
			],
			"min":[
				0.041666666666666664
			],
			"type":"SCALAR"
		},
		{
			"bufferView":16,
			"componentType":5126,
			"count":30,
			"type":"VEC3"
		},
		{
			"bufferView":17,
			"componentType":5126,
			"count":30,
			"type":"VEC4"
		},
		{
			"bufferView":18,
			"componentType":5126,
			"count":30,
			"type":"VEC3"
		},
		{
			"bufferView":19,
			"componentType":5126,
			"count":30,
			"type":"VEC3"
		},
		{
			"bufferView":20,
			"componentType":5126,
			"count":30,
			"type":"VEC4"
		},
		{
			"bufferView":21,
			"componentType":5126,
			"count":30,
			"type":"VEC3"
		}
	],
	"bufferViews":[
		{
			"buffer":0,
			"byteLength":21696,
			"byteOffset":0,
			"target":34962
		},
		{
			"buffer":0,
			"byteLength":14464,
			"byteOffset":21696,
			"target":34962
		},
		{
			"buffer":0,
			"byteLength":21696,
			"byteOffset":36160,
			"target":34962
		},
		{
			"buffer":0,
			"byteLength":28928,
			"byteOffset":57856,
			"target":34962
		},
		{
			"buffer":0,
			"byteLength":7232,
			"byteOffset":86784,
			"target":34962
		},
		{
			"buffer":0,
			"byteLength":28928,
			"byteOffset":94016,
			"target":34962
		},
		{
			"buffer":0,
			"byteLength":5292,
			"byteOffset":122944,
			"target":34963
		},
		{
			"buffer":0,
			"byteLength":2280,
			"byteOffset":128236,
			"target":34962
		},
		{
			"buffer":0,
			"byteLength":1520,
			"byteOffset":130516,
			"target":34962
		},
		{
			"buffer":0,
			"byteLength":2280,
			"byteOffset":132036,
			"target":34962
		},
		{
			"buffer":0,
			"byteLength":3040,
			"byteOffset":134316,
			"target":34962
		},
		{
			"buffer":0,
			"byteLength":760,
			"byteOffset":137356,
			"target":34962
		},
		{
			"buffer":0,
			"byteLength":3040,
			"byteOffset":138116,
			"target":34962
		},
		{
			"buffer":0,
			"byteLength":516,
			"byteOffset":141156,
			"target":34963
		},
		{
			"buffer":0,
			"byteLength":128,
			"byteOffset":141672
		},
		{
			"buffer":0,
			"byteLength":120,
			"byteOffset":141800
		},
		{
			"buffer":0,
			"byteLength":360,
			"byteOffset":141920
		},
		{
			"buffer":0,
			"byteLength":480,
			"byteOffset":142280
		},
		{
			"buffer":0,
			"byteLength":360,
			"byteOffset":142760
		},
		{
			"buffer":0,
			"byteLength":360,
			"byteOffset":143120
		},
		{
			"buffer":0,
			"byteLength":480,
			"byteOffset":143480
		},
		{
			"buffer":0,
			"byteLength":360,
			"byteOffset":143960
		}
	],
	"samplers":[
		{
			"magFilter":9729,
			"minFilter":9987
		}
	],
	"buffers":[
		{
			"byteLength":144320,
			"uri":"untitled.bin"
		}
	]
}
